<svg id="Line" height="200" viewBox="0 0 64 64" width="200" xmlns="http://www.w3.org/2000/svg"><path d="m58.27 31.21-.78.2a72.62 72.62 0 0 1 -35 0l-.78-.2a3 3 0 0 0 -3.71 2.91v25.88a3 3 0 0 0 3.73 2.91l.64-.16 10-14.69a5 5 0 0 1 7.73-.66l14.08 14.6c1.11.22 2.21.46 3.31.73l.78.2a3 3 0 0 0 3.73-2.93v-25.88a3 3 0 0 0 -3.73-2.91zm-7.27 18.35a4 4 0 1 1 4-4 4 4 0 0 1 -4 4zm-.17 11.82a72.64 72.64 0 0 0 -25.59.71l8.81-12.91a3 3 0 0 1 4.64-.39z" fill="#c4a2fc"/><path d="m27 22a4 4 0 1 0 4 4 4 4 0 0 0 -4-4zm0 6a2 2 0 1 1 2-2 2 2 0 0 1 -2 2zm0-12a10 10 0 1 0 10 10 10 10 0 0 0 -10-10zm0 18a8 8 0 1 1 8-8 8 8 0 0 1 -8 8zm12.41-29h6.77a3 3 0 1 0 0-2h-7.18a1 1 0 0 0 -.71.29l-7.89 7.9q-1.2-.19-2.4-.19v-4.18a3 3 0 1 0 -2 0v4.18q-1.2 0-2.4.21l-7.89-7.9a1 1 0 0 0 -.71-.31h-1.13a3 3 0 1 0 0 2h.72l6.63 6.63a25.13 25.13 0 0 0 -5.91 2.21l-2.6-2.61a1 1 0 0 0 -.71-.29h-4.18a3 3 0 1 0 0 2h3.77l1.94 1.94a25.37 25.37 0 0 0 -4.21 3.38l-7 7a1 1 0 0 0 0 1.42l7 7a25.37 25.37 0 0 0 4.21 3.38l-1.94 1.94h-1.77a3 3 0 1 0 0 2h2.18a1 1 0 0 0 .71-.29l2.6-2.61a25.13 25.13 0 0 0 5.91 2.21l-6.63 6.69h-6.77a3 3 0 1 0 0 2h7.18a1 1 0 0 0 .71-.29l7.89-7.9q1.2.19 2.4.19v4.16a3 3 0 1 0 2 0v-4.16q1.2 0 2.4-.21l5.89 5.9a1 1 0 0 0 .71.31h1.13a3 3 0 1 0 0-2h-.72l-4.63-4.63a25.13 25.13 0 0 0 5.91-2.21l2.6 2.61a1 1 0 0 0 .71.29h4.18a3 3 0 1 0 0-2h-3.77l-1.94-1.94a25.37 25.37 0 0 0 4.21-3.38l7-7a1 1 0 0 0 0-1.42l-7-7a25.37 25.37 0 0 0 -4.21-3.38l1.94-1.94h1.77a3 3 0 1 0 0-2h-2.18a1 1 0 0 0 -.71.29l-2.6 2.61a25.13 25.13 0 0 0 -5.91-2.21zm9.59-2a1 1 0 1 1 -1 1 1 1 0 0 1 1-1zm-37.95 2a1 1 0 1 1 1-1 1 1 0 0 1 -1 1zm-6.05 7.94a1 1 0 1 1 1-1 1 1 0 0 1 -1 1zm2 28.12a1 1 0 1 1 1-1 1 1 0 0 1 -1 1zm-2 7.94a1 1 0 1 1 1-1 1 1 0 0 1 -1 1zm36-4a1 1 0 1 1 -1 1 1 1 0 0 1 1-1zm8-5.94a1 1 0 1 1 -1 1 1 1 0 0 1 1-1zm-2-28.12a1 1 0 1 1 -1 1 1 1 0 0 1 1-1zm-18.6 28.06a21.8 21.8 0 0 1 -2.8 0 13.05 13.05 0 0 1 0-26 21.8 21.8 0 0 1 2.8 0 13.05 13.05 0 0 1 0 26zm-1.4-36a1 1 0 1 1 -1 1 1 1 0 0 1 1-1zm-22.59 23 6.33-6.32a22.89 22.89 0 0 1 5.26-3.92 15 15 0 0 0 0 20.48 22.89 22.89 0 0 1 -5.25-3.92zm22.59 23a1 1 0 1 1 1-1 1 1 0 0 1 -1 1zm22.59-23-6.33 6.32a22.89 22.89 0 0 1 -5.26 3.92 15 15 0 0 0 0-20.48 22.89 22.89 0 0 1 5.25 3.92z" fill="#151a6a"/></svg>